<svg width="1200" height="260" viewBox="0 0 1200 260" fill="none" xmlns="http://www.w3.org/2000/svg">
  <defs>
    <linearGradient id="mk" x1="0" y1="0" x2="1" y2="1">
      <stop offset="0" stop-color="#f48fc4"/><stop offset="1" stop-color="#a9a9fa"/>
    </linearGradient>
  </defs>
  <rect width="1200" height="260" fill="#16131c"/>
  <g transform="translate(960 0) skewX(-12)">
    <rect x="0" y="-20" width="48" height="300" fill="#372240"/>
    <rect x="74" y="-20" width="24" height="300" fill="#282b58"/>
    <rect x="122" y="-20" width="10" height="300" fill="#4f2745"/>
    <rect x="156" y="-20" width="4" height="300" fill="#30305f"/>
  </g>
  <g transform="translate(742 70)">
    <rect x="0" y="47" width="10" height="26" rx="5" fill="#4f2745" opacity="0.9"/>
    <rect x="22" y="34" width="10" height="52" rx="5" fill="#4f2745" opacity="0.9"/>
    <rect x="44" y="18" width="10" height="84" rx="5" fill="#f48fc4"/>
    <rect x="66" y="31" width="10" height="58" rx="5" fill="#a9a9fa"/>
    <rect x="88" y="12" width="10" height="96" rx="5" fill="#f48fc4"/>
    <rect x="110" y="25" width="10" height="70" rx="5" fill="#a9a9fa"/>
    <rect x="132" y="38" width="10" height="44" rx="5" fill="#4f2745" opacity="0.9"/>
    <rect x="154" y="29" width="10" height="62" rx="5" fill="#4f2745" opacity="0.9"/>
    <rect x="176" y="45" width="10" height="30" rx="5" fill="#4f2745" opacity="0.9"/>
  </g>
  <g transform="translate(80 58) skewX(-12)"><rect width="16" height="42" rx="5" fill="#4f2745"/></g>
  <g transform="translate(104 58) skewX(-12)"><rect width="7" height="42" rx="3.5" fill="#30305f"/></g>
  <text x="128" y="92" font-family="system-ui,-apple-system,'Segoe UI',Roboto,'PingFang SC','Hiragino Sans','Microsoft YaHei',sans-serif" font-size="48" font-weight="700" letter-spacing="-0.5" fill="#f1eaf4">voice-send-mcp</text>
  <text x="130" y="134" font-family="system-ui,-apple-system,'Segoe UI',Roboto,'PingFang SC','Hiragino Sans','Microsoft YaHei',sans-serif" font-size="21" fill="#b3a2ba">对话里的语音气泡：一句话，让 AI 说给你听</text>
  <text x="130" y="163" font-family="system-ui,-apple-system,'Segoe UI',Roboto,'PingFang SC','Hiragino Sans','Microsoft YaHei',sans-serif" font-size="14.5" fill="#7d6e86">TTS voice bubbles in AI chat — MiniMax / OpenAI / ElevenLabs / Edge</text>
  <g transform="translate(130 186) skewX(-12)"><rect width="381" height="27" rx="7" fill="#4f2745"/></g>
  <text x="143" y="204" font-family="ui-monospace,'SF Mono','Cascadia Code',Consolas,monospace" font-size="12" font-weight="700" letter-spacing="1.8" fill="#f48fc4">MCP SERVER · VOICE BUBBLE · 4 TTS PROVIDERS</text>
  <rect y="259" width="1200" height="1" fill="#3e3149"/>
</svg>
